HIERARCHY
ROOT hip
{
  OFFSET 0 0 0
  CHANNELS 6 Xposition Yposition Zposition Zrotation Yrotation Xrotation
  JOINT abdomen
  {
    OFFSET 0 20.6881 -0.73152
    CHANNELS 3 Zrotation Xrotation Yrotation
    JOINT chest
    {
      OFFSET 0 11.7043 -0.48768
      CHANNELS 3 Zrotation Xrotation Yrotation
      JOINT neck
      {
        OFFSET 0 22.1894 -2.19456
        CHANNELS 3 Zrotation Xrotation Yrotation
        JOINT head
        {
          OFFSET -0.24384 7.07133 1.2192
          CHANNELS 3 Zrotation Xrotation Yrotation
          JOINT leftEye
          {
            OFFSET 4.14528 8.04674 8.04672
            CHANNELS 3 Zrotation Xrotation Yrotation
            End Site
            {
              OFFSET 1 0 0
            }
          }
          JOINT rightEye
          {
            OFFSET -3.6576 8.04674 8.04672
            CHANNELS 3 Zrotation Xrotation Yrotation
            End Site
            {
              OFFSET 1 0 0
            }
          }
        }
      }
      JOINT rCollar
      {
        OFFSET -2.68224 19.2634 -4.8768
        CHANNELS 3 Zrotation Xrotation Yrotation
        JOINT rShldr
        {
          OFFSET -8.77824 -1.95073 1.46304
          CHANNELS 3 Zrotation Xrotation Yrotation
          JOINT rForeArm
          {
            OFFSET -28.1742 -1.7115 0.48768
            CHANNELS 3 Zrotation Xrotation Yrotation
            JOINT rHand
            {
              OFFSET -22.5879 0.773209 7.07136
              CHANNELS 3 Zrotation Xrotation Yrotation
              JOINT rThumb1
              {
                OFFSET -1.2192 -0.487915 3.41376
                CHANNELS 3 Zrotation Xrotation Yrotation
                JOINT rThumb2
                {
                  OFFSET -3.37035 -0.52449 3.41376
                  CHANNELS 3 Zrotation Xrotation Yrotation
                  End Site
                  {
                    OFFSET -1.78271 -1.18214 1.43049
                  }
                }
              }
              JOINT rIndex1
              {
                OFFSET -7.75947 0.938293 5.60832
                CHANNELS 3 Zrotation Xrotation Yrotation
                JOINT rIndex2
                {
                  OFFSET -2.54057 -0.884171 1.56538
                  CHANNELS 3 Zrotation Xrotation Yrotation
                  End Site
                  {
                    OFFSET -1.62519 -0.234802 1.16502
                  }
                }
              }
              JOINT rMid1
              {
                OFFSET -8.24714 1.18213 3.41376
                CHANNELS 3 Zrotation Xrotation Yrotation
                JOINT rMid2
                {
                  OFFSET -3.10165 -0.590103 1.0647
                  CHANNELS 3 Zrotation Xrotation Yrotation
                  End Site
                  {
                    OFFSET -2.48547 -0.328903 0.83742
                  }
                }
              }
              JOINT rRing1
              {
                OFFSET -8.82822 0.546677 1.51678
                CHANNELS 3 Zrotation Xrotation Yrotation
                JOINT rRing2
                {
                  OFFSET -2.60934 -0.819778 -0.0198488
                  CHANNELS 3 Zrotation Xrotation Yrotation
                  End Site
                  {
                    OFFSET -2.33842 -0.294052 0.168128
                  }
                }
              }
              JOINT rPinky1
              {
                OFFSET -8.27202 -0.0477905 -0.4584
                CHANNELS 3 Zrotation Xrotation Yrotation
                JOINT rPinky2
                {
                  OFFSET -1.82734 -0.647385 -0.700984
                  CHANNELS 3 Zrotation Xrotation Yrotation
                  End Site
                  {
                    OFFSET -1.69225 -0.51767 -0.607171
                  }
                }
              }
            }
          }
        }
      }
      JOINT lCollar
      {
        OFFSET 2.68224 19.2634 -4.8768
        CHANNELS 3 Zrotation Xrotation Yrotation
        JOINT lShldr
        {
          OFFSET 8.77824 -1.95073 1.46304
          CHANNELS 3 Zrotation Xrotation Yrotation
          JOINT lForeArm
          {
            OFFSET 28.1742 -1.7115 0.48768
            CHANNELS 3 Zrotation Xrotation Yrotation
            JOINT lHand
            {
              OFFSET 22.5879 0.773209 7.07136
              CHANNELS 3 Zrotation Xrotation Yrotation
              JOINT lThumb1
              {
                OFFSET 1.2192 -0.487915 3.41376
                CHANNELS 3 Zrotation Xrotation Yrotation
                JOINT lThumb2
                {
                  OFFSET 3.37035 -0.52449 3.41376
                  CHANNELS 3 Zrotation Xrotation Yrotation
                  End Site
                  {
                    OFFSET 1.78271 -1.18214 1.43049
                  }
                }
              }
              JOINT lIndex1
              {
                OFFSET 7.75947 0.938293 5.60832
                CHANNELS 3 Zrotation Xrotation Yrotation
                JOINT lIndex2
                {
                  OFFSET 2.54057 -0.884171 1.56538
                  CHANNELS 3 Zrotation Xrotation Yrotation
                  End Site
                  {
                    OFFSET 1.62519 -0.234802 1.16502
                  }
                }
              }
              JOINT lMid1
              {
                OFFSET 8.24714 1.18213 3.41376
                CHANNELS 3 Zrotation Xrotation Yrotation
                JOINT lMid2
                {
                  OFFSET 3.10165 -0.590103 1.0647
                  CHANNELS 3 Zrotation Xrotation Yrotation
                  End Site
                  {
                    OFFSET 2.48547 -0.328903 0.83742
                  }
                }
              }
              JOINT lRing1
              {
                OFFSET 8.82822 0.546677 1.51678
                CHANNELS 3 Zrotation Xrotation Yrotation
                JOINT lRing2
                {
                  OFFSET 2.60934 -0.819778 -0.0198488
                  CHANNELS 3 Zrotation Xrotation Yrotation
                  End Site
                  {
                    OFFSET 2.33842 -0.294052 0.168128
                  }
                }
              }
              JOINT lPinky1
              {
                OFFSET 8.27202 -0.0477905 -0.4584
                CHANNELS 3 Zrotation Xrotation Yrotation
                JOINT lPinky2
                {
                  OFFSET 1.82734 -0.647385 -0.700984
                  CHANNELS 3 Zrotation Xrotation Yrotation
                  End Site
                  {
                    OFFSET 1.69225 -0.51767 -0.607171
                  }
                }
              }
            }
          }
        }
      }
    }
  }
  JOINT rButtock
  {
    OFFSET -8.77824 4.35084 1.2192
    CHANNELS 3 Zrotation Xrotation Yrotation
    JOINT rThigh
    {
      OFFSET 0 -1.70687 -2.19456
      CHANNELS 3 Zrotation Xrotation Yrotation
      JOINT rShin
      {
        OFFSET 0 -36.8199 0.73152
        CHANNELS 3 Zrotation Xrotation Yrotation
        JOINT rFoot
        {
          OFFSET 0.73152 -45.1104 -5.12064
          CHANNELS 3 Zrotation Xrotation Yrotation
          End Site
          {
            OFFSET -1.1221 -3.69964 12.103
          }
        }
      }
    }
  }
  JOINT lButtock
  {
    OFFSET 8.77824 4.35084 1.2192
    CHANNELS 3 Zrotation Xrotation Yrotation
    JOINT lThigh
    {
      OFFSET 0 -1.70687 -2.19456
      CHANNELS 3 Zrotation Xrotation Yrotation
      JOINT lShin
      {
        OFFSET 0 -36.8199 0.73152
        CHANNELS 3 Zrotation Xrotation Yrotation
        JOINT lFoot
        {
          OFFSET -0.73152 -45.1104 -5.12064
          CHANNELS 3 Zrotation Xrotation Yrotation
          End Site
          {
            OFFSET 1.1221 -3.69964 12.103
          }
        }
      }
    }
  }
}
MOTION
Frames:	4
Frame Time:	0.03333
0.00989999994635582 67.92130279541016 0.06499999761581421 -12.947500348091125 -24.5676988363266 5.596099868416786 8.499809727072716 14.121999442577362 11.545700132846832 -1.2081599794328213 -7.40571990609169 3.338019847869873 -2.5415400601923466 11.827999949455261 -0.6822870019823313 7.343750149011612 -24.095399379730225 0.39691701997071505 0.0 0.0 0.0 0.0 0.0 0.0 6.394884621840902e-13 0.0 0.0 64.9223005771637 44.719199538230896 -1.9289099425077438 -28.00530105829239 -30.64369887113571 68.27710032463074 -0.0396715005626902 -5.675640106201172 -0.8003040309995413 -1.6844126093928935e-09 -1.5859313862165436e-09 5.146603143657558e-09 -2.9320545991140534e-09 -2.624460648803506e-09 8.89144757820759e-09 -1.6844126093928935e-09 -1.5859313862165436e-09 5.146603143657558e-09 7.7309102565050125 5.474880114197731 0.41731400415301323 -1.6844126093928935e-09 -1.5859313862165436e-09 5.146603143657558e-09 2.905540131032467 0.9651830233633518 0.102901995414868 -1.6844126093928935e-09 -1.5859313862165436e-09 5.146603143657558e-09 10.27859978377819 0.7318009994924068 0.025912300043273717 -1.6844126093928935e-09 -1.5859313862165436e-09 5.146603143657558e-09 2.221670038998127 -0.733487019315362 -0.2089200052432716 6.394884621840902e-13 0.0 0.0 -60.027902126312256 30.08710026741028 -21.182799339294434 22.60990083217621 -16.701300144195557 -45.47150015830994 0.06833899766206741 -7.438080087304115 1.0513299610465765 1.0129497240995988e-09 -1.780335878720507e-09 -1.4631496014771983e-09 1.7681855979390093e-09 -3.013269633811433e-09 -2.5272584025515243e-09 1.0129497240995988e-09 -1.780335878720507e-09 -1.4631496014771983e-09 -7.7309102565050125 5.474880114197731 -0.41731400415301323 1.0129497240995988e-09 -1.780335878720507e-09 -1.4631496014771983e-09 -2.905540131032467 0.9651830233633518 -0.102901995414868 1.0129497240995988e-09 -1.780335878720507e-09 -1.4631496014771983e-09 -10.27859978377819 0.7318009994924068 -0.025912300043273717 1.0129497240995988e-09 -1.780335878720507e-09 -1.4631496014771983e-09 -2.221670038998127 -0.733487019315362 0.2089200052432716 0.0 0.0 0.0 -3.608909882605076 2.7374400570988655 -6.863880157470703 -0.2789280074648559 46.84170126914978 2.04433998093009 -20.532700270414352 -20.37609949707985 -35.70789992809296 0.0 0.0 0.0 66.84710204601288 -54.49809908866882 59.343300461769104 4.017250053584576 77.56590127944946 -4.212910160422325 0.5784790171310306 -4.822459928691387 1.9090399704873562
-0.004800000227987766 67.82469940185547 0.09999999776482582 -12.965099662542343 -24.669601321220398 5.615400038659573 8.576689884066582 14.245700240135193 11.547699719667435 -1.2413900345563889 -7.442010194063187 3.3400100469589233 -2.564490046352148 11.935100555419922 -0.7093730382621288 7.383939698338509 -24.266701340675354 0.35993099212646484 0.0 0.0 0.0 0.0 0.0 0.0 0.0 0.0 0.0 64.87169802188873 44.69880133867264 -1.8157599493861198 -28.016300797462463 -30.711598992347717 68.38700115680695 -0.03367260127561167 -5.209079906344414 -0.7341480161994696 -5.723421736547607e-10 -1.6063950170064345e-09 2.588649294921197e-09 -1.0033573971668375e-09 -2.7114310796605423e-09 4.4713033275911584e-09 -5.723421736547607e-10 -1.6063950170064345e-09 2.588649294921197e-09 7.7309102565050125 5.474880114197731 0.41731400415301323 -5.723421736547607e-10 -1.6063950170064345e-09 2.588649294921197e-09 2.905540131032467 0.9651830233633518 0.102901995414868 -5.723421736547607e-10 -1.6063950170064345e-09 2.588649294921197e-09 10.27859978377819 0.7318009994924068 0.025912300043273717 -5.723421736547607e-10 -1.6063950170064345e-09 2.588649294921197e-09 2.221670038998127 -0.733487019315362 -0.2089200052432716 0.0 0.0 0.0 -59.96180176734924 30.05359947681427 -21.33120059967041 22.63330042362213 -16.73860028386116 -45.537702441215515 0.06667840119916946 -7.3484500497579575 1.0385100077837706 1.5079137938300846e-09 8.338929546880536e-10 -1.156195139628835e-09 2.616786787257297e-09 1.488729139964562e-09 -1.984972186619416e-09 1.5079137938300846e-09 8.338929546880536e-10 -1.156195139628835e-09 -7.7309102565050125 5.474880114197731 -0.41731400415301323 1.5079137938300846e-09 8.338929546880536e-10 -1.156195139628835e-09 -2.905540131032467 0.9651830233633518 -0.102901995414868 1.5079137938300846e-09 8.338929546880536e-10 -1.156195139628835e-09 -10.27859978377819 0.7318009994924068 -0.025912300043273717 1.5079137938300846e-09 8.338929546880536e-10 -1.156195139628835e-09 -2.221670038998127 -0.733487019315362 0.2089200052432716 0.0 0.0 0.0 -3.52750014513731 2.611750066280365 -6.808229684829712 -0.2829739940352738 47.04800069332123 2.055669967085123 -20.66739946603775 -20.369899570941925 -35.90119868516922 0.0 0.0 0.0 67.03929841518402 -54.678102135658264 59.273402094841 4.122810065746307 77.8138017654419 -4.311780072748661 0.6373680057004094 -4.9234699085354805 2.125699929893017
0.009200000204145908 67.69830322265625 0.19199999794363976 -13.235199451446533 -24.65940088033676 5.804099813103676 8.745929896831512 14.327499568462372 11.542399674654007 -1.3133299816399813 -7.457650154829025 3.3400600031018257 -2.58220000192523 11.994499415159225 -0.7347420416772366 7.381899878382683 -24.396099150180817 0.3163449908606708 0.0 0.0 0.0 0.0 0.0 0.0 -6.394884621840902e-13 0.0 0.0 64.78249847888947 44.70100075006485 -1.647230051457882 -28.028199076652527 -30.782900154590607 68.49979877471924 -0.025006899959407747 -4.509589970111847 -0.6351059814915061 9.029577086039353e-10 -5.422862159321085e-10 -1.4529177860822529e-09 1.5590728708048118e-09 -9.464429240324534e-10 -2.496562956366688e-09 9.029577086039353e-10 -5.422862159321085e-10 -1.4529177860822529e-09 7.7309102565050125 5.474880114197731 0.41731400415301323 9.029577086039353e-10 -5.422862159321085e-10 -1.4529177860822529e-09 2.905540131032467 0.9651830233633518 0.102901995414868 9.029577086039353e-10 -5.422862159321085e-10 -1.4529177860822529e-09 10.27859978377819 0.7318009994924068 0.025912300043273717 9.029577086039353e-10 -5.422862159321085e-10 -1.4529177860822529e-09 2.221670038998127 -0.733487019315362 -0.2089200052432716 -6.394884621840902e-13 0.0 0.0 -59.848397970199585 30.030299127101898 -21.52280017733574 22.652000784873962 -16.768599450588226 -45.59010207653046 0.06477600254584104 -7.242929935455322 1.0234400164335966 1.1370104857633123e-09 2.2868107407703064e-09 -3.785771696129814e-10 1.965148044291709e-09 3.969944373238832e-09 -6.548361852765083e-10 1.1370104857633123e-09 2.2868107407703064e-09 -3.785771696129814e-10 -7.7309102565050125 5.474880114197731 -0.41731400415301323 1.1370104857633123e-09 2.2868107407703064e-09 -3.785771696129814e-10 -2.905540131032467 0.9651830233633518 -0.102901995414868 1.1370104857633123e-09 2.2868107407703064e-09 -3.785771696129814e-10 -10.27859978377819 0.7318009994924068 -0.025912300043273717 1.1370104857633123e-09 2.2868107407703064e-09 -3.785771696129814e-10 -2.221670038998127 -0.733487019315362 0.2089200052432716 0.0 0.0 0.0 -3.418870009481907 2.4822800047695637 -6.808200180530548 -0.2864030096679926 47.2273975610733 2.0664899982511997 -20.785100162029266 -20.357299894094467 -36.07789993286133 0.0 0.0 0.0 67.38279819488525 -54.890597462654114 59.29949998855591 4.255300126969814 78.11520159244537 -4.4394200295209885 0.6903539970517159 -5.071189887821674 2.302930075675249
-0.0004000002518296242 67.5958023071289 0.2850000001490116 -13.246999830007553 -24.727400243282318 5.8657000958919525 8.855300322175026 14.41629946231842 11.547499895095825 -1.399150025099516 -7.421719953417778 3.341359868645668 -2.595879938453436 11.936299502849579 -0.7528539933264256 7.359760254621506 -24.422199726104736 0.28091200394555926 0.0 0.0 0.0 0.0 0.0 0.0 -6.394884621840902e-13 0.0 0.0 64.61889982223511 44.75910007953644 -1.360810026526451 -28.040100038051605 -30.842799246311188 68.5820996761322 -0.013180799433030188 -3.3791200071573257 -0.4754049936309457 1.716387032502098e-09 -8.390088623855263e-10 -3.1104718800634146e-09 2.9678659529963625e-09 -1.4836132322670892e-09 -5.371703082346357e-09 1.716387032502098e-09 -8.390088623855263e-10 -3.1104718800634146e-09 7.7309102565050125 5.474880114197731 0.41731400415301323 1.716387032502098e-09 -8.390088623855263e-10 -3.1104718800634146e-09 2.905540131032467 0.9651830233633518 0.102901995414868 1.716387032502098e-09 -8.390088623855263e-10 -3.1104718800634146e-09 10.27859978377819 0.7318009994924068 0.025912300043273717 1.716387032502098e-09 -8.390088623855263e-10 -3.1104718800634146e-09 2.221670038998127 -0.733487019315362 -0.2089200052432716 -6.394884621840902e-13 0.0 0.0 -59.70319926738739 29.989599287509918 -21.737199872732162 22.683398723602295 -16.818799674510956 -45.679001212120056 0.06417880242224783 -7.209370136260986 1.018650010228157 4.476419235288631e-10 2.0872903405688703e-09 1.7394086171407253e-10 7.680256430830923e-10 3.6067149267182685e-09 3.069544618483633e-10 4.476419235288631e-10 2.0872903405688703e-09 1.7394086171407253e-10 -7.7309102565050125 5.474880114197731 -0.41731400415301323 4.476419235288631e-10 2.0872903405688703e-09 1.7394086171407253e-10 -2.905540131032467 0.9651830233633518 -0.102901995414868 4.476419235288631e-10 2.0872903405688703e-09 1.7394086171407253e-10 -10.27859978377819 0.7318009994924068 -0.025912300043273717 4.476419235288631e-10 2.0872903405688703e-09 1.7394086171407253e-10 -2.221670038998127 -0.733487019315362 0.2089200052432716 0.0 0.0 0.0 -3.4708699956536293 2.4598500318825245 -6.941410079598427 -0.2883760049007833 47.322798371315 2.0715499855577946 -20.82479953765869 -20.32330021262169 -36.162000596523285 0.0 0.0 0.0 67.66889870166779 -55.06239831447601 59.33220148086548 4.416530057787895 78.46590042114258 -4.598219878971577 0.7344269659370184 -5.315109975636005 2.424250077456236
